<?xml version="1.0" standalone="no"?>
<!DOCTYPE svg PUBLIC "-//W3C//DTD SVG 20010904//EN"
 "http://www.w3.org/TR/2001/REC-SVG-20010904/DTD/svg10.dtd">
<svg version="1.0" xmlns="http://www.w3.org/2000/svg"
 width="16.000000pt" height="16.000000pt" viewBox="0 0 16.000000 16.000000"
 preserveAspectRatio="xMidYMid meet">
<metadata>
Created by potrace 1.11, written by Peter Selinger 2001-2013
</metadata>
<g transform="translate(0.000000,16.000000) scale(0.000658,-0.000658)"
fill="#000000" stroke="none">
<path d="M11415 22699 c-1098 -64 -2049 -268 -3120 -667 -354 -132 -990 -433
-1355 -642 -708 -405 -1327 -857 -1900 -1385 -171 -158 -522 -511 -671 -675
-442 -487 -861 -1053 -1206 -1630 -334 -558 -627 -1176 -833 -1755 -191 -539
-271 -816 -384 -1331 -155 -704 -226 -1388 -226 -2179 0 -1018 118 -1874 390
-2835 65 -229 97 -328 220 -675 429 -1206 1153 -2409 2039 -3385 149 -164 500
-517 671 -675 573 -528 1191 -979 1900 -1385 369 -211 996 -508 1355 -642
1084 -404 2024 -604 3149 -668 230 -13 872 -13 1102 0 1125 64 2065 264 3149
668 360 134 981 429 1355 643 705 402 1327 856 1900 1384 171 158 522 511 671
675 444 489 860 1051 1206 1630 335 560 626 1175 833 1755 191 539 271 816
384 1331 155 704 226 1388 226 2179 0 1018 -118 1874 -390 2835 -65 229 -97
328 -220 675 -429 1206 -1153 2409 -2039 3385 -149 164 -500 517 -671 675
-582 536 -1220 999 -1940 1407 -352 200 -974 493 -1315 620 -1084 404 -2024
604 -3149 668 -205 12 -924 11 -1131 -1z m1350 -918 c121 -11 294 -29 385 -41
3714 -470 6800 -3119 7835 -6725 157 -547 266 -1134 320 -1715 27 -291 35
-497 35 -870 0 -373 -8 -579 -35 -870 -233 -2529 -1480 -4849 -3465 -6446
-1365 -1098 -2999 -1788 -4730 -1998 -444 -54 -567 -61 -1150 -61 -583 0 -706
7 -1150 61 -1729 209 -3366 901 -4730 1998 -1909 1536 -3141 3748 -3434 6166
-54 444 -61 567 -61 1150 0 583 7 706 61 1150 400 3302 2546 6160 5614 7478
1010 434 2055 676 3215 746 33 2 287 2 565 1 411 -3 546 -7 725 -24z"/>
<path d="M19312 17067 c-6 -7 -31 -64 -54 -127 -24 -63 -705 -1686 -1513
-3607 -948 -2253 -1472 -3486 -1477 -3475 -3 9 -34 746 -68 1637 -33 891 -63
1635 -66 1653 l-5 32 -297 0 c-163 0 -306 -3 -318 -6 -18 -5 -124 -267 -645
-1593 l-624 -1588 -3 3468 -2 3469 -315 0 -315 0 0 -4315 0 -4315 313 0 314 0
659 1678 c372 947 660 1666 661 1652 1 -14 30 -743 63 -1620 34 -877 63 -1610
66 -1627 l5 -33 302 0 c166 0 307 4 313 8 6 4 15 21 21 37 6 17 807 1923 1781
4237 975 2313 1773 4212 1774 4218 4 16 -515 230 -556 230 -2 0 -8 -6 -14 -13z"/>
<path d="M7520 12830 c-1988 -2279 -3648 -4179 -3687 -4223 -40 -44 -73 -87
-73 -94 0 -10 67 -13 353 -13 l352 0 1409 1616 c775 888 1416 1620 1424 1626
11 9 344 -319 1730 -1705 l1717 -1717 313 0 312 0 0 68 c0 69 154 3433 166
3620 l6 102 864 0 864 0 0 245 0 245 -856 0 -856 0 6 63 c3 34 49 1010 103
2170 67 1475 93 2111 86 2118 -7 7 -122 12 -314 16 l-304 5 -3615 -4142z
m3485 1516 c-44 -954 -83 -1737 -86 -1740 -3 -3 -651 -5 -1439 -4 l-1433 3
1517 1738 c834 955 1518 1737 1519 1737 1 0 -34 -780 -78 -1734z m-105 -2251
c0 -48 -141 -3029 -143 -3031 -2 -2 -689 683 -1527 1521 l-1525 1525 1598 0
c1401 0 1597 -2 1597 -15z"/>
</g>
</svg>
